# xmcd
#
# Track frame offsets: 
#        150
#        9903
#        21255
#        33366
#        48619
#        60972
#        73425
#        85143
#        98863
#        112023
#        125094
#        136926
#        148678
#        157722
#        170856
#        182663
#        193396
#        204881
#        217741
#        229681
#
# Disc length: 3233 seconds
#
# Revision: 0
# Processed by: cddbd v1.5.1PL2 Copyright (c) Steve Scherf et al.
# Submitted via: ExactAudioCopy v0.95b3
#
DISCID=1a0c9f14
DTITLE=Various Artist - 60 Country Legends - Diamond Collection - Disc 1
DYEAR=1900
DGENRE=Country
TTITLE0=Dave Dudley - Six Days On The Road
TTITLE1=Johnny Paycheck - Take This Job And Shove It
TTITLE2=Moe BandY - She's Not Really Cheatin, She's Gettin Even
TTITLE3=T.G. Sheppard - Somewhere Down The Line
TTITLE4=Freddy Fender - Wasted Days And Wasted Nights
TTITLE5=Kenny Rogers - Reuban James
TTITLE6=Donna Fargo - Happiest Girl In The Whole USA
TTITLE7=David Houston - Almost Persuaded
TTITLE8=Hoyt Axton - Della And The Dealer
TTITLE9=Janie Fricke - If The Fall Don't Get You
TTITLE10=Patsy Cline - Walk'in After Midnight
TTITLE11=Skeeter Davis - The End Of The World
TTITLE12=Roy Drusky - Peel Me A Nanner
TTITLE13=Kenny Rogers - Ruby Don't Take Your Love To Town
TTITLE14=Hawkshaw Hawkins - Lonesome 7-7203
TTITLE15=Hank Locklin - Please Help Me I'm Fall'in
TTITLE16=Willie Nelson - Touch Me
TTITLE17=Carl Perkins - Bopp'in The Blues
TTITLE18=Sandy Posey - Bring Him Safely Home To Me
TTITLE19=Lynn Anderson - Rose Garden
EXTD=
EXTT0=
EXTT1=
EXTT2=
EXTT3=
EXTT4=
EXTT5=
EXTT6=
EXTT7=
EXTT8=
EXTT9=
EXTT10=
EXTT11=
EXTT12=
EXTT13=
EXTT14=
EXTT15=
EXTT16=
EXTT17=
EXTT18=
EXTT19=
PLAYORDER=
